<svg width="32" height="42" viewBox="0 0 32 42" fill="none" xmlns="http://www.w3.org/2000/svg">
<path d="M7.88241 31.998C7.28841 29.452 4.60841 27.37 3.50841 25.998C1.62479 23.6446 0.444304 20.8069 0.102937 17.8119C-0.23843 14.8169 0.273209 11.7864 1.57892 9.06948C2.88462 6.35255 4.93128 4.05974 7.48312 2.45516C10.035 0.850584 12.9882 -0.000482484 16.0026 2.05207e-07C19.017 0.000482894 21.9699 0.852496 24.5212 2.45789C27.0726 4.06329 29.1185 6.35676 30.4233 9.0741C31.7282 11.7915 32.2388 14.8221 31.8965 17.817C31.5542 20.8119 30.3728 23.6492 28.4884 26.002C27.3884 27.372 24.7124 29.454 24.1184 31.998H7.88241ZM24.0004 35.998V37.998C24.0004 39.0589 23.579 40.0763 22.8288 40.8264C22.0787 41.5766 21.0613 41.998 20.0004 41.998H12.0004C10.9395 41.998 9.92213 41.5766 9.17198 40.8264C8.42184 40.0763 8.00041 39.0589 8.00041 37.998V35.998H24.0004ZM18.0004 16.008V7.99799L9.00041 20.008H14.0004V28.008L23.0004 16.008H18.0004Z" fill="#F6F6F6"/>
</svg>
