<svg width="48" height="38" viewBox="0 0 48 38" fill="none" xmlns="http://www.w3.org/2000/svg">
<path d="M20.9263 15.6857C22.9734 13.0572 20.9264 11.0858 17.5147 9.11446C15.405 7.89552 20.2438 7.14306 23.6557 9.77157C26.2144 11.7428 25.0202 13.0572 20.9263 17V15.6857Z" fill="#F6F6F6" stroke="#F6F6F6"/>
<path d="M16.0737 19.3143C14.0267 21.9428 16.0736 23.9142 19.4854 25.8855C21.595 27.1045 16.7561 27.8569 13.3443 25.2284C10.7856 23.2573 11.9798 21.9428 16.0737 18V19.3143Z" fill="#F6F6F6" stroke="#F6F6F6"/>
<path d="M16.6857 15.0737C14.0572 13.0267 12.0858 15.0736 10.1145 18.4854C8.89552 20.595 8.14306 15.7561 10.7716 12.3443C12.7428 9.78561 14.0572 10.9798 18 15.0737H16.6857Z" fill="#F6F6F6" stroke="#F6F6F6"/>
<path d="M20.3143 19.9262C22.9428 21.9733 24.9142 19.9265 26.8856 16.5146C28.1044 14.405 28.857 19.2439 26.2284 22.6557C24.2572 25.2144 22.9428 24.0201 19 19.9262H20.3143Z" fill="#F6F6F6" stroke="#F6F6F6"/>
<path fill-rule="evenodd" clip-rule="evenodd" d="M18.5 20C19.8807 20 21 18.8807 21 17.5C21 16.1193 19.8807 15 18.5 15C17.1193 15 16 16.1193 16 17.5C16 18.8807 17.1193 20 18.5 20Z" fill="#F6F6F6" stroke="#F6F6F6"/>
<path fill-rule="evenodd" clip-rule="evenodd" d="M0 2C0 0.89543 0.895431 0 2 0H46C47.1046 0 48 0.895431 48 2V33C48 34.1046 47.1046 35 46 35H2C0.895431 35 0 34.1046 0 33V2ZM38 28H44V32H38V28ZM18.5 32C26.5081 32 33 25.5081 33 17.5C33 9.49187 26.5081 3 18.5 3C10.4919 3 4 9.49187 4 17.5C4 25.5081 10.4919 32 18.5 32Z" fill="#F6F6F6"/>
<rect x="8.5" y="35.5" width="4" height="2" fill="#F6F6F6" stroke="#F6F6F6"/>
<rect x="35" y="35" width="5" height="3" fill="#F6F6F6"/>
</svg>
