<svg width="1383" height="952" viewBox="0 0 1383 952" fill="none" xmlns="http://www.w3.org/2000/svg">
<g clip-path="url(#clip0_582_955)">
<rect width="1383" height="952" fill="#F1EDE5"/>
<rect width="1537.5" height="460" transform="translate(0 665)" fill="#F69800"/>
<rect width="1537.5" height="460" transform="translate(0 665)" fill="#161616"/>
<rect width="1537.5" height="460" transform="translate(0 665)" fill="#F6F6F6" fill-opacity="0.2"/>
<path d="M184.894 144.673L142.402 120.392V170.977L184.894 144.673Z" fill="#F69800"/>
<path d="M125.51 101.863L99.5703 60.3633L75.6292 104.925L125.51 101.863Z" fill="#F69800"/>
<path d="M92.6586 33.6998L95.1318 -15.1777L49.9991 7.66805L92.6586 33.6998Z" fill="#F69800"/>
<path d="M259.464 152.92L210.524 152.997L235.691 196.878L259.464 152.92Z" fill="#F69800"/>
<path d="M328.664 122.693L286.066 146.788L329.535 172.66L328.664 122.693Z" fill="#F69800"/>
<path d="M371.802 61.5819L345.419 102.802L395.941 105.34L371.802 61.5819Z" fill="#F69800"/>
<path d="M378.705 -14.3871L378.449 34.5522L422.5 9.68441L378.705 -14.3871Z" fill="#F69800"/>
<circle cx="234.805" cy="13.15" r="128.15" fill="#F69800"/>
<path d="M1154 662L226 662" stroke="#77513E" stroke-width="10" stroke-linecap="round"/>
<path d="M405 860V667.5C405 666.119 406.119 665 407.5 665H942.5C943.881 665 945 666.119 945 667.5V860C945 861.381 943.881 862.5 942.5 862.5H407.5C406.119 862.5 405 861.381 405 860Z" fill="#F6F6F6" fill-opacity="0.5" stroke="#111111" stroke-width="10" stroke-linecap="round" stroke-dasharray="30 30"/>
<path d="M405 660V431.25H376.311C373.087 431.25 370.706 428.245 371.443 425.107L412.844 248.857C413.375 246.597 415.391 245 417.712 245H933.69C935.941 245 937.914 246.504 938.511 248.673L987.009 424.923C987.885 428.107 985.49 431.25 982.188 431.25H945V660C945 662.761 942.761 665 940 665H410C407.239 665 405 662.761 405 660Z" fill="#F6F6F6" fill-opacity="0.5"/>
<path d="M405 431.25V660C405 662.761 407.239 665 410 665H940C942.761 665 945 662.761 945 660V431.25M945 431.25H376.311C373.087 431.25 370.706 428.245 371.443 425.107L412.844 248.857C413.375 246.597 415.391 245 417.712 245H933.69C935.941 245 937.914 246.504 938.511 248.673L987.009 424.923C987.885 428.107 985.49 431.25 982.188 431.25H945Z" stroke="#111111" stroke-width="10" stroke-linecap="round"/>
<path d="M638.014 502.317C638.148 502.129 638.286 501.957 638.425 501.801C638.663 502.074 638.869 502.326 639.043 502.551C639.212 502.797 639.362 503.074 639.491 503.381L640.643 502.898L639.491 503.381C639.617 503.684 639.637 503.847 639.637 503.906C639.637 504.108 639.588 504.291 639.477 504.483C639.363 504.674 639.216 504.821 639.025 504.932C638.831 505.046 638.64 505.097 638.432 505.097C638.225 505.097 638.041 505.047 637.854 504.936C637.668 504.826 637.521 504.679 637.404 504.48C637.301 504.306 637.25 504.122 637.25 503.906C637.25 503.832 637.274 503.648 637.426 503.331L637.431 503.321L637.436 503.311C637.599 502.956 637.792 502.625 638.014 502.317Z" fill="#6D6D6D" stroke="#6D6D6D" stroke-width="2.5"/>
<path d="M645.344 512.894C645.479 512.707 645.616 512.535 645.755 512.379C645.994 512.652 646.2 512.903 646.373 513.129C646.542 513.375 646.692 513.652 646.821 513.959L647.974 513.475L646.821 513.959C646.948 514.261 646.967 514.425 646.967 514.484C646.967 514.686 646.919 514.869 646.807 515.061C646.694 515.251 646.547 515.398 646.355 515.51C646.161 515.623 645.97 515.674 645.762 515.674C645.556 515.674 645.372 515.624 645.185 515.514C644.999 515.404 644.852 515.257 644.734 515.058C644.631 514.884 644.581 514.7 644.581 514.484C644.581 514.41 644.605 514.225 644.757 513.909L644.762 513.899L644.766 513.888C644.929 513.534 645.123 513.202 645.344 512.894Z" fill="#6D6D6D" stroke="#6D6D6D" stroke-width="2.5"/>
<path d="M652.674 502.317C652.809 502.129 652.946 501.957 653.085 501.801C653.324 502.074 653.53 502.326 653.703 502.551C653.872 502.797 654.022 503.074 654.151 503.381L655.304 502.898L654.151 503.381C654.278 503.684 654.298 503.847 654.298 503.906C654.298 504.108 654.249 504.291 654.137 504.483C654.024 504.674 653.877 504.821 653.685 504.932C653.491 505.046 653.3 505.097 653.092 505.097C652.886 505.097 652.702 505.047 652.515 504.936C652.329 504.826 652.182 504.679 652.064 504.48C651.962 504.306 651.911 504.122 651.911 503.906C651.911 503.832 651.935 503.648 652.087 503.331L652.092 503.321L652.097 503.311C652.259 502.956 652.453 502.625 652.674 502.317Z" fill="#6D6D6D" stroke="#6D6D6D" stroke-width="2.5"/>
<path d="M660.005 512.894C660.139 512.707 660.277 512.535 660.416 512.379C660.654 512.652 660.86 512.903 661.034 513.129C661.203 513.375 661.353 513.652 661.482 513.959L662.634 513.475L661.482 513.959C661.609 514.261 661.628 514.425 661.628 514.484C661.628 514.686 661.58 514.869 661.468 515.061C661.355 515.251 661.208 515.398 661.016 515.51C660.822 515.623 660.631 515.674 660.423 515.674C660.217 515.674 660.032 515.624 659.845 515.514C659.659 515.404 659.512 515.257 659.395 515.058C659.292 514.884 659.241 514.7 659.241 514.484C659.241 514.41 659.265 514.225 659.418 513.909L659.422 513.899L659.427 513.888C659.59 513.534 659.784 513.202 660.005 512.894Z" fill="#6D6D6D" stroke="#6D6D6D" stroke-width="2.5"/>
<path d="M667.335 502.317C667.47 502.129 667.607 501.957 667.746 501.801C667.985 502.074 668.191 502.326 668.365 502.551C668.533 502.797 668.684 503.074 668.812 503.381L669.965 502.898L668.812 503.381C668.939 503.684 668.959 503.847 668.959 503.906C668.959 504.108 668.91 504.291 668.798 504.483C668.685 504.674 668.538 504.821 668.346 504.932C668.152 505.046 667.961 505.097 667.754 505.097C667.547 505.097 667.363 505.047 667.176 504.936C666.99 504.826 666.843 504.679 666.726 504.48C666.623 504.306 666.572 504.122 666.572 503.906C666.572 503.832 666.596 503.648 666.748 503.331L666.753 503.321L666.758 503.311C666.921 502.956 667.114 502.625 667.335 502.317Z" fill="#6D6D6D" stroke="#6D6D6D" stroke-width="2.5"/>
<path d="M610 476.25C617.917 469.167 637.5 459.25 652.5 476.25" stroke="#6D6D6D" stroke-width="5" stroke-linecap="round"/>
<path d="M637.5 488.75C642.083 481.25 654.75 470.75 668.75 488.75" stroke="#6D6D6D" stroke-width="5" stroke-linecap="round"/>
<path d="M637.5 490H668.75" stroke="#6D6D6D" stroke-width="5" stroke-linecap="round"/>
<path d="M608.75 648.75H698.75" stroke="#6D6D6D" stroke-width="5" stroke-linecap="round"/>
<path d="M846.25 616.25V625M846.25 648.75V625M846.25 625H762.5M762.5 616.25V648.75M767.5 500H842.5M777.5 600H832.5M777.5 492.5V633.75M791.25 492.5V633.75M803.75 492.5V633.75M817.5 492.5V633.75M832.5 492.5V633.75" stroke="#6D6D6D" stroke-width="5" stroke-linecap="round"/>
<path d="M692.5 835V722.5C692.5 719.739 694.739 717.5 697.5 717.5H757.5C760.261 717.5 762.5 719.739 762.5 722.5V835C762.5 837.761 760.261 840 757.5 840H697.5C694.739 840 692.5 837.761 692.5 835Z" fill="#E7E7E7"/>
<path d="M562.5 835V692.5C562.5 689.739 564.739 687.5 567.5 687.5H645C647.761 687.5 650 689.739 650 692.5V835C650 837.761 647.761 840 645 840H567.5C564.739 840 562.5 837.761 562.5 835Z" fill="#E7E7E7"/>
<path d="M633.259 708.053C612.452 701.559 600.044 701.516 579.236 708.051C578.202 708.376 577.5 709.335 577.5 710.419V800.049C577.5 801.156 578.232 802.122 579.294 802.43C601.035 808.719 613.461 808.965 633.297 802.471C634.315 802.138 635 801.196 635 800.125V710.427C635 709.341 634.296 708.377 633.259 708.053Z" stroke="#6D6D6D" stroke-width="5" stroke-linecap="square"/>
<path d="M436.25 630V452.5C436.25 449.739 438.489 447.5 441.25 447.5H542.5C545.261 447.5 547.5 449.739 547.5 452.5V630C547.5 632.761 545.261 635 542.5 635H441.25C438.489 635 436.25 632.761 436.25 630Z" fill="#E7E7E7"/>
<path d="M413.75 822.5H603.75C606.511 822.5 608.75 820.261 608.75 817.5V801.25" stroke="#3D3D3D" stroke-width="5" stroke-linecap="round"/>
<path d="M607.5 467.5L607.5 710" stroke="#3D3D3D" stroke-width="5" stroke-linecap="round"/>
<path d="M652.5 706.236H863.949C865.33 706.236 866.449 705.117 866.449 703.736V627.5C866.449 626.119 865.33 625 863.949 625L851.25 625M837.5 600H882.5C883.881 600 885 601.119 885 602.5V820C885 821.381 883.881 822.5 882.5 822.5H652.5" stroke="#3D3D3D" stroke-width="5" stroke-linecap="square"/>
<path d="M542.5 323.75H483.75C480.989 323.75 478.75 325.989 478.75 328.75V632.5V772.5C478.75 775.261 480.989 777.5 483.75 777.5H601.25C604.011 777.5 606.25 775.261 606.25 772.5V772.5C606.25 769.739 604.011 767.5 601.25 767.5H591.25C588.489 767.5 586.25 765.261 586.25 762.5V761.25C586.25 758.489 588.489 756.25 591.25 756.25H601.25C604.011 756.25 606.25 754.011 606.25 751.25V750C606.25 747.239 604.011 745 601.25 745H511.25C508.489 745 506.25 742.761 506.25 740V630V360C506.25 357.239 508.489 355 511.25 355H542.5" stroke="#3D3D3D" stroke-width="5" stroke-linecap="round"/>
<path d="M626.25 280H647.5" stroke="#3D3D3D" stroke-width="5" stroke-linecap="square"/>
<path d="M627.5 356.25H647.5" stroke="#3D3D3D" stroke-width="5" stroke-linecap="square"/>
<path d="M728.75 280H750" stroke="#3D3D3D" stroke-width="5" stroke-linecap="square"/>
<path d="M730 355L750 355" stroke="#3D3D3D" stroke-width="5" stroke-linecap="square"/>
<path d="M652.5 745L690 745" stroke="#3D3D3D" stroke-width="5" stroke-linecap="square"/>
<path d="M652.5 777.5L690 777.5" stroke="#3D3D3D" stroke-width="5" stroke-linecap="square"/>
<path d="M452.5 537.315L457.206 532.5L462.5 537.315H459.559V568.75H455.441V537.315H452.5Z" fill="#161616" stroke="#161616" stroke-width="5" stroke-linecap="round"/>
<path d="M527.5 563.935L522.794 568.75L517.5 563.935L520.441 563.935L520.441 532.5L524.559 532.5L524.559 563.935L527.5 563.935Z" fill="#161616" stroke="#161616" stroke-width="5" stroke-linecap="round"/>
<path d="M910 666.435L905.294 671.25L900 666.435L902.941 666.435L902.941 635L907.059 635L907.059 666.435L910 666.435Z" fill="#161616" stroke="#161616" stroke-width="5" stroke-linecap="round"/>
<path d="M787.315 800L782.5 795.294L787.315 790L787.315 792.941L818.75 792.941L818.75 797.059L787.315 797.059L787.315 800Z" fill="#161616" stroke="#161616" stroke-width="5" stroke-linecap="round"/>
<path d="M813.935 680L818.75 684.706L813.935 690L813.935 687.059L782.5 687.059L782.5 682.941L813.935 682.941L813.935 680Z" fill="#161616" stroke="#161616" stroke-width="5" stroke-linecap="round"/>
<path d="M522.315 800L517.5 795.294L522.315 790L522.315 792.941L553.75 792.941L553.75 797.059L522.315 797.059L522.315 800Z" fill="#161616" stroke="#161616" stroke-width="5" stroke-linecap="round"/>
<path d="M551.435 725L556.25 729.706L551.435 735L551.435 732.059L520 732.059L520 727.941L551.435 727.941L551.435 725Z" fill="#161616" stroke="#161616" stroke-width="5" stroke-linecap="round"/>
<path d="M580 639.815L584.706 635L590 639.815H587.059L587.059 671.25H582.941L582.941 639.815H580Z" fill="#161616" stroke="#161616" stroke-width="5" stroke-linecap="round"/>
<path d="M545 408.75V270C545 267.239 547.239 265 550 265H562.5H578.75H595H610.625H621.25C624.011 265 626.25 267.239 626.25 270V408.75C626.25 411.511 624.011 413.75 621.25 413.75H610.625H595H578.75H562.5H550C547.239 413.75 545 411.511 545 408.75Z" fill="#94B7EA"/>
<path d="M562.5 265H550C547.239 265 545 267.239 545 270V408.75C545 411.511 547.239 413.75 550 413.75H562.5M562.5 265V413.75M562.5 265H578.75M562.5 413.75H578.75M578.75 265V413.75M578.75 265H595M578.75 413.75H595M595 265V413.75M595 265H610.625M595 413.75H610.625M610.625 265H621.25C624.011 265 626.25 267.239 626.25 270V408.75C626.25 411.511 624.011 413.75 621.25 413.75H610.625M610.625 265V413.75" stroke="#161616" stroke-width="5" stroke-linecap="round"/>
<path d="M647.5 408.75V270C647.5 267.239 649.739 265 652.5 265H665H681.25H697.5H713.125H723.75C726.511 265 728.75 267.239 728.75 270V408.75C728.75 411.511 726.511 413.75 723.75 413.75H713.125H697.5H681.25H665H652.5C649.739 413.75 647.5 411.511 647.5 408.75Z" fill="#94B7EA"/>
<path d="M665 265H652.5C649.739 265 647.5 267.239 647.5 270V408.75C647.5 411.511 649.739 413.75 652.5 413.75H665M665 265V413.75M665 265H681.25M665 413.75H681.25M681.25 265V413.75M681.25 265H697.5M681.25 413.75H697.5M697.5 265V413.75M697.5 265H713.125M697.5 413.75H713.125M713.125 265H723.75C726.511 265 728.75 267.239 728.75 270V408.75C728.75 411.511 726.511 413.75 723.75 413.75H713.125M713.125 265V413.75" stroke="#161616" stroke-width="5" stroke-linecap="round"/>
<path d="M750 408.75V270C750 267.239 752.239 265 755 265H767.5H783.75H800H815.625H826.25C829.011 265 831.25 267.239 831.25 270V408.75C831.25 411.511 829.011 413.75 826.25 413.75H815.625H800H783.75H767.5H755C752.239 413.75 750 411.511 750 408.75Z" fill="#94B7EA"/>
<path d="M767.5 265H755C752.239 265 750 267.239 750 270V408.75C750 411.511 752.239 413.75 755 413.75H767.5M767.5 265V413.75M767.5 265H783.75M767.5 413.75H783.75M783.75 265V413.75M783.75 265H800M783.75 413.75H800M800 265V413.75M800 265H815.625M800 413.75H815.625M815.625 265H826.25C829.011 265 831.25 267.239 831.25 270V408.75C831.25 411.511 829.011 413.75 826.25 413.75H815.625M815.625 265V413.75" stroke="#161616" stroke-width="5" stroke-linecap="round"/>
<rect x="418" y="605" width="40" height="40" rx="20" fill="#F69800"/>
<path d="M432.66 632V629.9L438.06 624.8C438.487 624.413 438.8 624.067 439 623.76C439.2 623.453 439.333 623.173 439.4 622.92C439.48 622.667 439.52 622.433 439.52 622.22C439.52 621.66 439.327 621.233 438.94 620.94C438.567 620.633 438.013 620.48 437.28 620.48C436.693 620.48 436.147 620.593 435.64 620.82C435.147 621.047 434.727 621.4 434.38 621.88L432.02 620.36C432.553 619.56 433.3 618.927 434.26 618.46C435.22 617.993 436.327 617.76 437.58 617.76C438.62 617.76 439.527 617.933 440.3 618.28C441.087 618.613 441.693 619.087 442.12 619.7C442.56 620.313 442.78 621.047 442.78 621.9C442.78 622.353 442.72 622.807 442.6 623.26C442.493 623.7 442.267 624.167 441.92 624.66C441.587 625.153 441.093 625.707 440.44 626.32L435.96 630.54L435.34 629.36H443.24V632H432.66Z" fill="black"/>
<rect x="815" y="298" width="40" height="40" rx="20" fill="#F69800"/>
<path d="M834.44 325V312.2L835.84 313.6H831.64V311H837.68V325H834.44Z" fill="black"/>
<rect x="677" y="476" width="40" height="40" rx="20" fill="#F69800"/>
<path d="M690.62 500.06V497.88L697.22 489H700.62L694.16 497.88L692.58 497.42H703.6V500.06H690.62ZM698.16 503V500.06L698.26 497.42V494.8H701.32V503H698.16Z" fill="black"/>
<rect x="835" y="458" width="40" height="40" rx="20" fill="#F69800"/>
<path d="M855.54 485.24C854.26 485.24 853.147 484.973 852.2 484.44C851.267 483.907 850.547 483.127 850.04 482.1C849.533 481.073 849.28 479.807 849.28 478.3C849.28 476.687 849.58 475.32 850.18 474.2C850.793 473.08 851.633 472.227 852.7 471.64C853.78 471.053 855.02 470.76 856.42 470.76C857.167 470.76 857.88 470.84 858.56 471C859.24 471.16 859.827 471.4 860.32 471.72L859.12 474.1C858.733 473.833 858.32 473.653 857.88 473.56C857.44 473.453 856.98 473.4 856.5 473.4C855.287 473.4 854.327 473.767 853.62 474.5C852.913 475.233 852.56 476.32 852.56 477.76C852.56 478 852.56 478.267 852.56 478.56C852.573 478.853 852.613 479.147 852.68 479.44L851.78 478.6C852.033 478.08 852.36 477.647 852.76 477.3C853.16 476.94 853.633 476.673 854.18 476.5C854.74 476.313 855.353 476.22 856.02 476.22C856.927 476.22 857.74 476.4 858.46 476.76C859.18 477.12 859.753 477.627 860.18 478.28C860.62 478.933 860.84 479.7 860.84 480.58C860.84 481.527 860.6 482.353 860.12 483.06C859.653 483.753 859.02 484.293 858.22 484.68C857.433 485.053 856.54 485.24 855.54 485.24ZM855.36 482.82C855.813 482.82 856.213 482.74 856.56 482.58C856.92 482.407 857.2 482.16 857.4 481.84C857.6 481.52 857.7 481.153 857.7 480.74C857.7 480.1 857.48 479.593 857.04 479.22C856.613 478.833 856.04 478.64 855.32 478.64C854.84 478.64 854.42 478.733 854.06 478.92C853.7 479.093 853.413 479.34 853.2 479.66C853 479.967 852.9 480.327 852.9 480.74C852.9 481.14 853 481.5 853.2 481.82C853.4 482.127 853.68 482.373 854.04 482.56C854.4 482.733 854.84 482.82 855.36 482.82Z" fill="black"/>
<rect x="587" y="698" width="40" height="40" rx="20" fill="#F69800"/>
<path d="M606.32 725.24C605.347 725.24 604.38 725.113 603.42 724.86C602.46 724.593 601.647 724.22 600.98 723.74L602.24 721.26C602.773 721.647 603.393 721.953 604.1 722.18C604.807 722.407 605.52 722.52 606.24 722.52C607.053 722.52 607.693 722.36 608.16 722.04C608.627 721.72 608.86 721.28 608.86 720.72C608.86 720.187 608.653 719.767 608.24 719.46C607.827 719.153 607.16 719 606.24 719H604.76V716.86L608.66 712.44L609.02 713.6H601.68V711H611.48V713.1L607.6 717.52L605.96 716.58H606.9C608.62 716.58 609.92 716.967 610.8 717.74C611.68 718.513 612.12 719.507 612.12 720.72C612.12 721.507 611.913 722.247 611.5 722.94C611.087 723.62 610.453 724.173 609.6 724.6C608.747 725.027 607.653 725.24 606.32 725.24Z" fill="black"/>
<rect x="708" y="725" width="40" height="40" rx="20" fill="#F69800"/>
<path d="M727.54 752.24C726.567 752.24 725.6 752.113 724.64 751.86C723.693 751.593 722.88 751.22 722.2 750.74L723.48 748.26C724.013 748.647 724.627 748.953 725.32 749.18C726.027 749.407 726.74 749.52 727.46 749.52C728.273 749.52 728.913 749.36 729.38 749.04C729.847 748.72 730.08 748.273 730.08 747.7C730.08 747.34 729.987 747.02 729.8 746.74C729.613 746.46 729.28 746.247 728.8 746.1C728.333 745.953 727.673 745.88 726.82 745.88H723.24L723.96 738H732.5V740.6H725.12L726.8 739.12L726.3 744.74L724.62 743.26H727.58C728.967 743.26 730.08 743.453 730.92 743.84C731.773 744.213 732.393 744.727 732.78 745.38C733.167 746.033 733.36 746.773 733.36 747.6C733.36 748.427 733.153 749.193 732.74 749.9C732.327 750.593 731.687 751.16 730.82 751.6C729.967 752.027 728.873 752.24 727.54 752.24Z" fill="black"/>
</g>
<defs>
<clipPath id="clip0_582_955">
<rect width="1383" height="952" fill="white"/>
</clipPath>
</defs>
</svg>
