<svg width="18" height="18" viewBox="0 0 18 18" fill="none" xmlns="http://www.w3.org/2000/svg">
<path d="M14 18.0018C12.3463 18.0003 10.7183 17.5916 9.26 16.8118L8.81 16.5618C5.70075 14.8901 3.15169 12.341 1.48 9.23175L1.23 8.78175C0.429821 7.31515 0.00713062 5.67243 6.21756e-07 4.00173V3.33173C-0.000419378 2.79869 0.211961 2.28753 0.590001 1.91173L2.28 0.221732C2.44413 0.0563323 2.67581 -0.0233877 2.90696 0.00599235C3.13811 0.0353723 3.34248 0.170532 3.46 0.371732L5.71 4.23173C5.93753 4.62462 5.87183 5.12149 5.55 5.44173L3.66 7.33175C3.50304 7.48695 3.46647 7.72675 3.57 7.92175L3.92 8.58175C5.17704 10.9102 7.0893 12.819 9.42 14.0718L10.08 14.4318C10.275 14.5353 10.5148 14.4987 10.67 14.3418L12.56 12.4518C12.8802 12.13 13.3771 12.0643 13.77 12.2918L17.63 14.5418C17.8312 14.6593 17.9664 14.8637 17.9957 15.0948C18.0251 15.326 17.9454 15.5577 17.78 15.7218L16.09 17.4118C15.7142 17.7898 15.203 18.0022 14.67 18.0018H14Z" fill="#161616"/>
</svg>
