<svg width="44" height="44" viewBox="0 0 44 44" fill="none" xmlns="http://www.w3.org/2000/svg">
<path d="M10.1 7.18L9.32 6.4C8.54 5.62 7.28 5.64 6.52 6.4L6.5 6.42C5.72 7.2 5.72 8.46 6.5 9.22L7.28 10C8.06 10.78 9.3 10.78 10.08 10L10.1 9.98C10.88 9.22 10.88 7.94 10.1 7.18ZM4.02 19.9H1.98C0.88 19.9 0 20.78 0 21.88V21.9C0 23 0.88 23.88 1.98 23.88H4C5.12 23.9 6 23.02 6 21.92V21.9C6 20.78 5.12 19.9 4.02 19.9ZM22.02 0H22C20.88 0 20 0.88 20 1.98V3.9C20 5 20.88 5.88 21.98 5.88H22C23.12 5.9 24 5.02 24 3.92V1.98C24 0.88 23.12 0 22.02 0ZM37.5 6.42C36.72 5.64 35.46 5.64 34.68 6.4L33.9 7.18C33.12 7.96 33.12 9.22 33.9 9.98L33.92 10C34.7 10.78 35.96 10.78 36.72 10L37.5 9.22C38.28 8.44 38.28 7.2 37.5 6.42ZM33.88 36.62L34.66 37.4C35.44 38.18 36.7 38.18 37.48 37.4C38.26 36.62 38.26 35.36 37.48 34.58L36.7 33.8C35.92 33.02 34.66 33.04 33.9 33.8C33.1 34.6 33.1 35.84 33.88 36.62ZM38 21.88V21.9C38 23 38.88 23.88 39.98 23.88H42C43.1 23.88 43.98 23 43.98 21.9V21.88C43.98 20.78 43.1 19.9 42 19.9H39.98C38.88 19.9 38 20.78 38 21.88ZM22 9.9C15.38 9.9 10 15.28 10 21.9C10 28.52 15.38 33.9 22 33.9C28.62 33.9 34 28.52 34 21.9C34 15.28 28.62 9.9 22 9.9ZM21.98 43.8H22C23.1 43.8 23.98 42.92 23.98 41.82V39.9C23.98 38.8 23.1 37.92 22 37.92H21.98C20.88 37.92 20 38.8 20 39.9V41.82C20 42.92 20.88 43.8 21.98 43.8ZM6.5 37.38C7.28 38.16 8.54 38.16 9.32 37.38L10.1 36.6C10.88 35.82 10.86 34.56 10.1 33.8L10.08 33.78C9.3 33 8.04 33 7.26 33.78L6.48 34.56C5.72 35.36 5.72 36.6 6.5 37.38Z" fill="#F6F6F6"/>
</svg>
