<svg width="86" height="53" viewBox="0 0 86 53" fill="none" xmlns="http://www.w3.org/2000/svg">
<g clip-path="url(#clip0_613_203)">
<path d="M19.1778 50.9121C18.3906 50.9121 18.0232 50.7347 18.0232 49.8056V48.6677H19.2828V49.3984C19.2828 49.7012 19.3458 49.7116 19.6082 49.7116H21.6551C21.9175 49.7116 21.9805 49.7116 21.9805 49.3984V48.0622C21.9805 47.7595 21.9175 47.749 21.6551 47.749H19.1673C18.3801 47.749 18.0127 47.5716 18.0127 46.6425V44.4816C18.0127 43.5525 18.3801 43.375 19.1673 43.375H22.0749C22.8622 43.375 23.2296 43.5525 23.2296 44.4816V45.6194H21.97V44.8887C21.97 44.586 21.907 44.5755 21.6446 44.5755H19.5977C19.3353 44.5755 19.2723 44.5755 19.2723 44.8887V46.2354C19.2723 46.5381 19.3353 46.5485 19.5977 46.5485H22.0854C22.8727 46.5485 23.2401 46.726 23.2401 47.6551V49.8056C23.2401 50.7347 22.8727 50.9121 22.0854 50.9121H19.1778Z" fill="#161616"/>
<path d="M25.5492 50.9125C24.7619 50.9125 24.3945 50.735 24.3945 49.8059V46.2775C24.3945 45.3484 24.7619 45.1709 25.5492 45.1709H28.0999C28.8871 45.1709 29.2545 45.3484 29.2545 46.2775V49.8059C29.2545 50.735 28.8871 50.9125 28.0999 50.9125H25.5492ZM27.9949 46.6846C27.9949 46.3819 27.9319 46.3714 27.6695 46.3714H25.9795C25.7171 46.3714 25.6541 46.3714 25.6541 46.6846V49.3988C25.6541 49.7015 25.7171 49.712 25.9795 49.712H27.6695C27.9319 49.712 27.9949 49.712 27.9949 49.3988V46.6846Z" fill="#161616"/>
<path d="M31.5531 50.9119C30.7658 50.9119 30.3984 50.7345 30.3984 49.8054V42.5605H31.6581V49.3982C31.6581 49.701 31.721 49.7114 31.9834 49.7114H32.6762V50.9119H31.5531Z" fill="#161616"/>
<path d="M34.4291 50.9125C33.6418 50.9125 33.2744 50.735 33.2744 49.8059V48.4279C33.2744 47.4988 33.6418 47.3214 34.4291 47.3214H36.8748V46.6846C36.8748 46.3819 36.8118 46.3714 36.5494 46.3714H33.3899V45.1709H36.9798C37.767 45.1709 38.1344 45.3484 38.1344 46.2775V49.8059C38.1344 50.735 37.767 50.9125 36.9798 50.9125H34.4291ZM36.8748 48.5219H34.8594C34.597 48.5219 34.534 48.5323 34.534 48.8351V49.3988C34.534 49.7015 34.597 49.712 34.8594 49.712H36.5494C36.8118 49.712 36.8748 49.712 36.8748 49.3988V48.5219Z" fill="#161616"/>
<path d="M39.2793 50.9125V46.2775C39.2793 45.3484 39.6467 45.1709 40.4339 45.1709H42.7957V46.3714H40.8643C40.6019 46.3714 40.5389 46.3819 40.5389 46.6846V50.9125H39.2793Z" fill="#161616"/>
<path d="M47.4243 50.9121L45.7973 48.0205H44.9051V50.9121H43.6455V43.375H47.6133C48.4005 43.375 48.7679 43.5525 48.7679 44.4816V46.9139C48.7679 47.843 48.4005 48.0205 47.6133 48.0205H47.1094L48.7364 50.9121H47.4243ZM47.5083 44.8887C47.5083 44.586 47.4453 44.5755 47.1829 44.5755H44.9051V46.8199H47.1829C47.4768 46.8199 47.5083 46.82 47.5083 46.5172V44.8887Z" fill="#161616"/>
<path d="M51.0043 50.9125C50.217 50.9125 49.8496 50.735 49.8496 49.8059V46.2775C49.8496 45.3484 50.217 45.1709 51.0043 45.1709H53.555C54.3422 45.1709 54.7096 45.3484 54.7096 46.2775V47.5824C54.7096 48.5115 54.3422 48.6889 53.555 48.6889H51.1092V49.3988C51.1092 49.7015 51.1722 49.712 51.4346 49.712H54.4787V50.9125H51.0043ZM53.45 46.6846C53.45 46.3819 53.387 46.3714 53.1246 46.3714H51.4346C51.1722 46.3714 51.1092 46.3714 51.1092 46.6846V47.4884H53.1246C53.387 47.4884 53.45 47.4884 53.45 47.1752V46.6846Z" fill="#161616"/>
<path d="M55.9897 53.0003V51.7998H58.9918C59.2542 51.7998 59.3172 51.7998 59.3172 51.4866V50.9125H56.8714C56.0842 50.9125 55.7168 50.735 55.7168 49.8059V46.2775C55.7168 45.3484 56.0842 45.1709 56.8714 45.1709H59.4222C60.2094 45.1709 60.5768 45.3484 60.5768 46.2775V51.8938C60.5768 52.8229 60.2094 53.0003 59.4222 53.0003H55.9897ZM59.3172 46.6846C59.3172 46.3819 59.2542 46.3714 58.9918 46.3714H57.3018C57.0394 46.3714 56.9764 46.3714 56.9764 46.6846V49.3988C56.9764 49.7015 57.0394 49.712 57.3018 49.712H59.3172V46.6846Z" fill="#161616"/>
<path d="M62.2037 50.9121V46.3711H61.2695V45.1705H63.4634V50.9121H62.2037ZM62.2037 43.375H63.4634V44.5755H62.2037V43.375Z" fill="#161616"/>
<path d="M68.2293 50.9125V46.6846C68.2293 46.3819 68.1663 46.3714 67.9039 46.3714H66.2139C65.9515 46.3714 65.8885 46.3819 65.8885 46.6846V50.9125H64.6289V46.2775C64.6289 45.3484 64.9963 45.1709 65.7835 45.1709H68.3343C69.1215 45.1709 69.4889 45.3484 69.4889 46.2775V50.9125H68.2293Z" fill="#161616"/>
<path d="M71.6927 50.9125C70.9055 50.9125 70.5381 50.735 70.5381 49.8059V48.4279C70.5381 47.4988 70.9055 47.3214 71.6927 47.3214H74.1385V46.6846C74.1385 46.3819 74.0755 46.3714 73.8131 46.3714H70.6536V45.1709H74.2435C75.0307 45.1709 75.3981 45.3484 75.3981 46.2775V49.8059C75.3981 50.735 75.0307 50.9125 74.2435 50.9125H71.6927ZM74.1385 48.5219H72.1231C71.8607 48.5219 71.7977 48.5323 71.7977 48.8351V49.3988C71.7977 49.7015 71.8607 49.712 72.1231 49.712H73.8131C74.0755 49.712 74.1385 49.712 74.1385 49.3988V48.5219Z" fill="#161616"/>
<path d="M6.52899 37.2054L40.5385 10.387L37.0011 5.95036L25.5281 15.0116L27.2811 0.626354L21.5079 0L19.7549 14.3748L10.7592 3.10045L6.18259 6.70199L15.1783 17.9868L0.703283 16.4105L0 22.1521L14.475 23.7179L3.00207 32.7792L6.52899 37.2054Z" fill="#F69800"/>
<path d="M10.78 46.8299L6.21387 41.1092L45.5662 10.0107L85.9998 40.984L81.5177 46.7777L45.6397 19.2912L10.78 46.8299Z" fill="#161616"/>
</g>
<defs>
<clipPath id="clip0_613_203">
<rect width="86" height="53" fill="white"/>
</clipPath>
</defs>
</svg>
