<svg width="204" height="126" viewBox="0 0 204 126" fill="none" xmlns="http://www.w3.org/2000/svg">
<g clip-path="url(#clip0_613_426)">
<path d="M45.4914 121.037C43.6239 121.037 42.7524 120.615 42.7524 118.406V115.701H45.7404V117.438C45.7404 118.158 45.8898 118.183 46.5122 118.183H51.3676C51.9901 118.183 52.1395 118.183 52.1395 117.438V114.261C52.1395 113.542 51.9901 113.517 51.3676 113.517H45.4665C43.599 113.517 42.7275 113.095 42.7275 110.886V105.749C42.7275 103.54 43.599 103.118 45.4665 103.118H52.3636C54.231 103.118 55.1025 103.54 55.1025 105.749V108.454H52.1146V106.717C52.1146 105.997 51.9652 105.972 51.3427 105.972H46.4873C45.8649 105.972 45.7155 105.972 45.7155 106.717V109.918C45.7155 110.638 45.8649 110.663 46.4873 110.663H52.3885C54.2559 110.663 55.1274 111.085 55.1274 113.293V118.406C55.1274 120.615 54.2559 121.037 52.3885 121.037H45.4914Z" fill="#F6F6F6"/>
<path d="M60.6051 121.037C58.7377 121.037 57.8662 120.615 57.8662 118.406V110.017C57.8662 107.809 58.7377 107.387 60.6051 107.387H66.6557C68.5231 107.387 69.3946 107.809 69.3946 110.017V118.406C69.3946 120.615 68.5231 121.037 66.6557 121.037H60.6051ZM66.4067 110.985C66.4067 110.266 66.2573 110.241 65.6348 110.241H61.626C61.0035 110.241 60.8541 110.241 60.8541 110.985V117.438C60.8541 118.158 61.0035 118.182 61.626 118.182H65.6348C66.2573 118.182 66.4067 118.182 66.4067 117.438V110.985Z" fill="#F6F6F6"/>
<path d="M74.8473 121.037C72.9799 121.037 72.1084 120.615 72.1084 118.406V101.183H75.0963V117.438C75.0963 118.158 75.2457 118.183 75.8682 118.183H77.5115V121.037H74.8473Z" fill="#F6F6F6"/>
<path d="M81.6696 121.037C79.8021 121.037 78.9307 120.615 78.9307 118.406V115.13C78.9307 112.921 79.8021 112.499 81.6696 112.499H87.4711V110.985C87.4711 110.266 87.3217 110.241 86.6992 110.241H79.2046V107.387H87.7201C89.5876 107.387 90.459 107.809 90.459 110.017V118.406C90.459 120.615 89.5876 121.037 87.7201 121.037H81.6696ZM87.4711 115.353H82.6905C82.068 115.353 81.9186 115.378 81.9186 116.098V117.438C81.9186 118.158 82.068 118.182 82.6905 118.182H86.6992C87.3217 118.182 87.4711 118.182 87.4711 117.438V115.353Z" fill="#F6F6F6"/>
<path d="M93.1729 121.037V110.017C93.1729 107.809 94.0443 107.387 95.9118 107.387H101.514V110.241H96.9327C96.3102 110.241 96.1608 110.266 96.1608 110.985V121.037H93.1729Z" fill="#F6F6F6"/>
<path d="M112.495 121.037L108.636 114.162H106.519V121.037H103.531V103.118H112.943C114.811 103.118 115.682 103.54 115.682 105.749V111.531C115.682 113.74 114.811 114.162 112.943 114.162H111.748L115.607 121.037H112.495ZM112.694 106.717C112.694 105.997 112.545 105.972 111.922 105.972H106.519V111.308H111.922C112.619 111.308 112.694 111.308 112.694 110.588V106.717Z" fill="#F6F6F6"/>
<path d="M120.986 121.037C119.119 121.037 118.247 120.615 118.247 118.406V110.017C118.247 107.809 119.119 107.387 120.986 107.387H127.037C128.904 107.387 129.775 107.809 129.775 110.017V113.12C129.775 115.328 128.904 115.75 127.037 115.75H121.235V117.438C121.235 118.158 121.384 118.182 122.007 118.182H129.228V121.037H120.986ZM126.788 110.985C126.788 110.266 126.638 110.241 126.016 110.241H122.007C121.384 110.241 121.235 110.241 121.235 110.985V112.896H126.016C126.638 112.896 126.788 112.896 126.788 112.152V110.985Z" fill="#F6F6F6"/>
<path d="M132.812 126V123.146H139.934C140.556 123.146 140.705 123.146 140.705 122.401V121.037H134.904C133.037 121.037 132.165 120.615 132.165 118.406V110.017C132.165 107.809 133.037 107.387 134.904 107.387H140.954C142.822 107.387 143.693 107.809 143.693 110.017V123.369C143.693 125.578 142.822 126 140.954 126H132.812ZM140.705 110.985C140.705 110.266 140.556 110.241 139.934 110.241H135.925C135.302 110.241 135.153 110.241 135.153 110.985V117.438C135.153 118.158 135.302 118.182 135.925 118.182H140.705V110.985Z" fill="#F6F6F6"/>
<path d="M147.553 121.037V110.241H145.337V107.387H150.541V121.037H147.553ZM147.553 103.118H150.541V105.972H147.553V103.118Z" fill="#F6F6F6"/>
<path d="M161.845 121.037V110.985C161.845 110.266 161.696 110.241 161.073 110.241H157.064C156.442 110.241 156.293 110.266 156.293 110.985V121.037H153.305V110.017C153.305 107.809 154.176 107.387 156.044 107.387H162.094C163.962 107.387 164.833 107.809 164.833 110.017V121.037H161.845Z" fill="#F6F6F6"/>
<path d="M170.062 121.037C168.195 121.037 167.323 120.615 167.323 118.406V115.13C167.323 112.921 168.195 112.499 170.062 112.499H175.864V110.985C175.864 110.266 175.714 110.241 175.092 110.241H167.597V107.387H176.113C177.98 107.387 178.852 107.809 178.852 110.017V118.406C178.852 120.615 177.98 121.037 176.113 121.037H170.062ZM175.864 115.353H171.083C170.461 115.353 170.311 115.378 170.311 116.098V117.438C170.311 118.158 170.461 118.182 171.083 118.182H175.092C175.714 118.182 175.864 118.182 175.864 117.438V115.353Z" fill="#F6F6F6"/>
<path d="M15.4874 88.4507L96.1611 24.6937L87.7701 14.1461L60.5551 35.688L64.7133 1.48907L51.0187 0L46.8605 34.1741L25.5218 7.37089L14.6657 15.933L36.0044 42.7611L1.66825 39.0136L0 52.6634L34.3361 56.3861L7.1212 77.9279L15.4874 88.4507Z" fill="#F69800"/>
<path d="M25.5714 111.332L14.7402 97.7321L108.088 23.7998L204 97.4342L193.368 111.208L108.262 45.8628L25.5714 111.332Z" fill="#F6F6F6"/>
</g>
<defs>
<clipPath id="clip0_613_426">
<rect width="204" height="126" fill="white"/>
</clipPath>
</defs>
</svg>
